<?xml version="1.0" encoding="utf-8"?>
<!-- Generator: Adobe Illustrator 23.0.3, SVG Export Plug-In . SVG Version: 6.00 Build 0)  -->
<svg version="1.1" id="OBJECTS" xmlns="http://www.w3.org/2000/svg" xmlns:xlink="http://www.w3.org/1999/xlink" x="0px" y="0px"
	 viewBox="0 0 280.8 280.8" style="enable-background:new 0 0 280.8 280.8;" xml:space="preserve">
<style type="text/css">
	.st0{opacity:0.5;fill:#302E0A;enable-background:new    ;}
	.st1{fill:#302E0A;}
</style>
<g>
	<path class="st0" d="M144.3,136.6c0,0,88.2,11.8,120.6-10.7c33-23,11.4-76.3-36.8-69.9c8.3-47.9-44.1-71.6-68.4-39.5
		C135.9,48,144.3,136.6,144.3,136.6z"/>
	<path class="st0" d="M136.5,144.1c0,0-88.2-11.8-120.6,10.7c-33,23-11.4,76.3,36.8,69.9c-8.3,47.9,44.1,71.6,68.4,39.5
		C144.8,232.7,136.5,144.1,136.5,144.1z"/>
	<path class="st1" d="M136.6,136.5c0,0,11.8-88.2-10.7-120.6c-23-33-76.3-11.4-69.9,36.8C8.1,44.4-15.6,96.8,16.5,121
		C48,144.8,136.6,136.5,136.6,136.5z"/>
	<path class="st1" d="M224.8,228.1c47.9,8.3,71.6-44.1,39.5-68.4c-31.5-23.8-120.1-15.4-120.1-15.4s-11.8,88.2,10.7,120.6
		C177.8,297.9,231.1,276.3,224.8,228.1z"/>
</g>
</svg>
